<svg width="600" height="300" viewBox="0 0 600 300" fill="none" xmlns="http://www.w3.org/2000/svg">
<g clip-path="url(#clip0)">
<rect width="600" height="300" stroke="black" stroke-width="23"/>
<path d="M143.871 166H85.6711V225H59.2711V85.4H85.6711V142.6H143.871V85.4H170.271V225H143.871V166ZM246.421 227.4C234.421 227.4 224.221 225.267 215.821 221C207.554 216.733 200.421 211.133 194.421 204.2L212.221 187C217.021 192.6 222.354 196.867 228.221 199.8C234.221 202.733 240.821 204.2 248.021 204.2C256.154 204.2 262.288 202.467 266.421 199C270.554 195.4 272.621 190.6 272.621 184.6C272.621 179.933 271.288 176.133 268.621 173.2C265.954 170.267 260.954 168.133 253.621 166.8L240.421 164.8C212.554 160.4 198.621 146.867 198.621 124.2C198.621 117.933 199.754 112.267 202.021 107.2C204.421 102.133 207.821 97.8 212.221 94.2C216.621 90.6 221.888 87.8667 228.021 86C234.288 84 241.354 83 249.221 83C259.754 83 268.954 84.7333 276.821 88.2C284.688 91.6667 291.421 96.8 297.021 103.6L279.021 120.6C275.554 116.333 271.354 112.867 266.421 110.2C261.488 107.533 255.288 106.2 247.821 106.2C240.221 106.2 234.488 107.667 230.621 110.6C226.888 113.4 225.021 117.4 225.021 122.6C225.021 127.933 226.554 131.867 229.621 134.4C232.688 136.933 237.621 138.8 244.421 140L257.421 142.4C271.554 144.933 281.954 149.467 288.621 156C295.421 162.4 298.821 171.4 298.821 183C298.821 189.667 297.621 195.733 295.221 201.2C292.954 206.533 289.554 211.2 285.021 215.2C280.621 219.067 275.154 222.067 268.621 224.2C262.221 226.333 254.821 227.4 246.421 227.4ZM414.487 225H324.887V212.8L373.687 166C380.22 159.6 385.553 153.067 389.687 146.4C393.82 139.6 395.887 132.667 395.887 125.6V121.8C395.887 113.533 393.487 106.8 388.687 101.6C383.887 96.4 376.687 93.8 367.087 93.8C357.753 93.8 350.62 96.1333 345.687 100.8C340.753 105.467 337.153 111.533 334.887 119L324.087 115C325.42 110.733 327.22 106.667 329.487 102.8C331.753 98.9333 334.62 95.5333 338.087 92.6C341.687 89.6667 345.887 87.3333 350.687 85.6C355.487 83.8667 361.087 83 367.487 83C374.02 83 379.82 84 384.887 86C390.087 87.8667 394.42 90.5333 397.887 94C401.487 97.4667 404.153 101.667 405.887 106.6C407.753 111.4 408.687 116.8 408.687 122.8C408.687 127.867 408.02 132.667 406.687 137.2C405.353 141.6 403.487 145.867 401.087 150C398.687 154 395.753 158 392.287 162C388.82 165.867 385.02 169.733 380.887 173.6L337.887 214.4H414.487V225ZM499.409 227.4C490.209 227.4 481.875 225.933 474.409 223C467.075 219.933 460.742 215.4 455.409 209.4C450.209 203.4 446.209 196 443.409 187.2C440.609 178.267 439.209 167.933 439.209 156.2C439.209 144.467 440.609 134.067 443.409 125C446.209 115.8 450.209 108.133 455.409 102C460.742 95.7333 467.075 91 474.409 87.8C481.875 84.6 490.209 83 499.409 83C511.942 83 522.342 85.6667 530.609 91C538.875 96.3333 545.475 104.4 550.409 115.2L527.809 127.2C525.809 120.933 522.542 115.933 518.009 112.2C513.475 108.333 507.275 106.4 499.409 106.4C489.542 106.4 481.675 109.733 475.809 116.4C470.075 123.067 467.209 132.4 467.209 144.4V166.4C467.209 178.533 470.075 187.867 475.809 194.4C481.675 200.8 489.542 204 499.409 204C507.275 204 513.675 201.867 518.609 197.6C523.675 193.333 527.342 188.067 529.609 181.8L551.009 194.4C545.942 204.8 539.209 212.933 530.809 218.8C522.409 224.533 511.942 227.4 499.409 227.4Z" fill="black"/>
</g>
<defs>
<clipPath id="clip0">
<rect width="600" height="300" fill="white"/>
</clipPath>
</defs>
</svg>
