<svg width="600" height="300" viewBox="0 0 600 300" fill="none" xmlns="http://www.w3.org/2000/svg">
<g clip-path="url(#clip0)">
<rect width="600" height="300" stroke="black" stroke-width="23"/>
<path d="M157.334 74C161.2 74 164.267 75.2 166.534 77.6C168.8 79.8667 169.934 82.9333 169.934 86.8V204.2C169.934 208.067 168.734 211.2 166.334 213.6C164.067 216 161.067 217.2 157.334 217.2C153.467 217.2 150.4 216 148.134 213.6C145.867 211.2 144.734 208.067 144.734 204.2V154.8H72.5336V204.2C72.5336 208.067 71.3336 211.2 68.9336 213.6C66.6669 216 63.6003 217.2 59.7336 217.2C56.0003 217.2 52.9336 216 50.5336 213.6C48.2669 211.2 47.1336 208.067 47.1336 204.2V86.8C47.1336 82.9333 48.2669 79.8667 50.5336 77.6C52.8003 75.2 55.8669 74 59.7336 74C63.6003 74 66.6669 75.2 68.9336 77.6C71.3336 79.8667 72.5336 82.9333 72.5336 86.8V134H144.734V86.8C144.734 82.9333 145.867 79.8667 148.134 77.6C150.4 75.2 153.467 74 157.334 74ZM249.059 217.8C238.792 217.8 229.059 216.467 219.859 213.8C210.792 211 203.392 207.267 197.659 202.6C194.592 200.333 193.059 197.133 193.059 193C193.059 190.2 193.859 187.8 195.459 185.8C197.192 183.667 199.192 182.6 201.459 182.6C203.859 182.6 206.592 183.533 209.659 185.4C215.392 189.533 221.392 192.533 227.659 194.4C233.925 196.267 240.859 197.2 248.459 197.2C258.192 197.2 265.659 195.533 270.859 192.2C276.059 188.733 278.659 183.733 278.659 177.2C278.659 172.133 276.192 168.267 271.259 165.6C266.459 162.8 258.392 160.133 247.059 157.6C235.325 155.067 225.792 152.133 218.459 148.8C211.125 145.467 205.592 141.2 201.859 136C198.125 130.8 196.259 124.2 196.259 116.2C196.259 107.933 198.592 100.533 203.259 94C207.925 87.4667 214.392 82.4 222.659 78.8C231.059 75.0667 240.459 73.2 250.859 73.2C269.925 73.2 285.459 78.2667 297.459 88.4C299.192 89.8667 300.392 91.3333 301.059 92.8C301.859 94.1333 302.259 95.8667 302.259 98C302.259 100.8 301.392 103.267 299.659 105.4C298.059 107.4 296.125 108.4 293.859 108.4C292.525 108.4 291.259 108.2 290.059 107.8C288.992 107.4 287.525 106.667 285.659 105.6C280.192 101.6 274.859 98.6667 269.659 96.8C264.592 94.8 258.325 93.8 250.859 93.8C241.792 93.8 234.592 95.6667 229.259 99.4C224.059 103 221.459 108.067 221.459 114.6C221.459 120.067 223.792 124.267 228.459 127.2C233.125 130.133 241.059 132.867 252.259 135.4C264.125 138.067 273.725 141.067 281.059 144.4C288.525 147.6 294.192 151.733 298.059 156.8C302.059 161.867 304.059 168.2 304.059 175.8C304.059 184.067 301.725 191.4 297.059 197.8C292.525 204.067 286.059 209 277.659 212.6C269.392 216.067 259.859 217.8 249.059 217.8ZM414.998 205.2C416.731 205.2 418.131 205.733 419.198 206.8C420.264 207.733 420.798 209 420.798 210.6C420.798 214.2 418.864 216 414.998 216H335.398C333.531 216 332.064 215.467 330.998 214.4C329.931 213.333 329.398 212.067 329.398 210.6C329.398 208.733 330.064 207.133 331.398 205.8L380.798 150.8C387.864 142.667 392.998 135.467 396.198 129.2C399.398 122.933 400.998 116.667 400.998 110.4C400.998 102 398.531 95.5333 393.598 91C388.798 86.4667 381.998 84.2 373.198 84.2C366.398 84.2 359.931 85.4667 353.798 88C347.798 90.4 341.598 94.2667 335.198 99.6C333.731 100.933 332.198 101.6 330.598 101.6C329.531 101.6 328.598 101.067 327.798 100C326.998 98.9333 326.598 97.6667 326.598 96.2C326.598 93.9333 327.464 92 329.198 90.4C334.531 85.2 341.131 81.0667 348.998 78C356.864 74.9333 364.931 73.4 373.198 73.4C385.598 73.4 395.398 76.6667 402.598 83.2C409.798 89.6 413.398 98.4667 413.398 109.8C413.398 117.933 411.531 125.8 407.798 133.4C404.064 141 397.931 149.533 389.398 159L347.198 205.2H414.998ZM510.72 217.8C497.12 217.8 485.186 214.867 474.92 209C464.786 203.133 456.986 194.733 451.52 183.8C446.053 172.867 443.32 160.067 443.32 145.4C443.32 130.733 446.053 118 451.52 107.2C456.986 96.2667 464.786 87.8667 474.92 82C485.186 76.1333 497.12 73.2 510.72 73.2C519.52 73.2 527.786 74.5333 535.52 77.2C543.253 79.7333 550.12 83.4667 556.12 88.4C557.853 89.7333 559.053 91.1333 559.72 92.6C560.386 94.0667 560.72 95.8667 560.72 98C560.72 100.933 559.92 103.4 558.32 105.4C556.72 107.4 554.786 108.4 552.52 108.4C549.853 108.4 547.12 107.467 544.32 105.6C538.586 101.333 533.253 98.4 528.32 96.8C523.386 95.0667 517.92 94.2 511.92 94.2C498.053 94.2 487.52 98.5333 480.32 107.2C473.253 115.867 469.72 128.6 469.72 145.4C469.72 162.333 473.253 175.133 480.32 183.8C487.52 192.467 498.053 196.8 511.92 196.8C517.653 196.8 522.92 195.933 527.72 194.2C532.653 192.467 538.186 189.533 544.32 185.4C545.653 184.6 546.986 183.933 548.32 183.4C549.653 182.867 551.053 182.6 552.52 182.6C554.786 182.6 556.72 183.6 558.32 185.6C559.92 187.6 560.72 190.067 560.72 193C560.72 195 560.386 196.8 559.72 198.4C559.053 199.867 557.853 201.267 556.12 202.6C550.12 207.533 543.253 211.333 535.52 214C527.786 216.533 519.52 217.8 510.72 217.8Z" fill="black"/>
</g>
<defs>
<clipPath id="clip0">
<rect width="600" height="300" fill="white"/>
</clipPath>
</defs>
</svg>
