<svg width="450" height="150" viewBox="0 0 450 150" fill="none" xmlns="http://www.w3.org/2000/svg">
<path d="M104.484 109V41.3594H90.3281V68.8281H59.8594V41.3594H45.7031V109H59.8594V80.5H90.3281V109H104.484ZM134.484 99.625C129.516 99.625 126.281 97.2344 126.281 93.4375C126.281 89.6406 129.328 87.3906 135.047 87.0156L145.875 86.2656V90.0625C145.875 95.6875 140.812 99.625 134.484 99.625ZM130.031 109.609C136.641 109.609 143.016 106.422 145.828 101.031H146.109V109H159.328V73.6094C159.328 63.2969 150.656 56.5 137.391 56.5C124.5 56.5 115.594 63.2969 115.219 73.1406H127.734C128.391 69.3906 131.859 66.7656 136.828 66.7656C142.453 66.7656 145.875 69.4844 145.875 74.4531V77.875L132.984 78.6719C119.812 79.4688 112.641 84.7656 112.641 94.1406C112.641 103.375 120.094 109.609 130.031 109.609ZM168.562 109H182.25V79.5625C182.25 72.7188 186.188 68.0312 192.75 68.0312C199.219 68.0312 202.406 71.9219 202.406 78.7656V109H216.094V75.9062C216.094 63.8594 209.625 56.6406 198.188 56.6406C190.266 56.6406 185.016 60.1094 182.062 66.625H181.781V57.3906H168.562V109ZM244.406 109.609C252 109.609 257.953 105.859 260.484 100.188H260.719V109H274.219V38.125H260.531V66.2031H260.25C257.672 60.4844 251.906 56.7812 244.453 56.7812C231.609 56.7812 223.266 66.9531 223.266 83.125C223.266 99.3906 231.562 109.609 244.406 109.609ZM248.953 67.8438C256.031 67.8438 260.625 73.8906 260.625 83.2188C260.625 92.5469 256.031 98.5469 248.953 98.5469C241.828 98.5469 237.281 92.6406 237.281 83.1719C237.281 73.7969 241.828 67.8438 248.953 67.8438ZM284.156 109H297.844V38.125H284.156V109ZM330.516 66.7188C336.844 66.7188 341.25 71.125 341.484 77.875H319.219C319.688 71.2656 324.281 66.7188 330.516 66.7188ZM341.672 93.25C340.359 97.2344 336.281 99.6719 331.125 99.6719C323.906 99.6719 319.078 94.6562 319.078 87.2031V86.3594H354.703V82.1406C354.703 66.4375 345.234 56.5 330.375 56.5C315.234 56.5 305.578 67 305.578 83.4062C305.578 99.8125 315.188 109.891 330.891 109.891C343.453 109.891 352.781 103.234 354.281 93.25H341.672ZM367.875 127.844C380.766 127.844 387.094 123.203 391.5 110.031L409.359 57.3906H394.922L383.719 97.8906H383.438L372.281 57.3906H357.281L375.375 109.328L374.906 111.297C373.828 115.422 370.875 117.203 365.766 117.203C365.203 117.203 363.141 117.156 362.672 117.062V127.656C363.188 127.75 367.359 127.844 367.875 127.844Z" fill="black"/>
</svg>
